<?xml version="1.0" encoding="UTF-8"?>
<svg version="1.1" xmlns="http://www.w3.org/2000/svg" width="683" height="500">
<path d="M0 0 C2.95489631 0.01610165 5.90842555 0.0000364 8.86328125 -0.01904297 C21.15917238 -0.03317735 32.89965978 0.97425657 44.95703125 3.39111328 C46.0234082 3.60477539 47.08978516 3.8184375 48.18847656 4.03857422 C89.66029927 13.09731566 127.51161764 35.09631274 156.95703125 65.39111328 C159.18561805 67.63306492 161.41436551 69.87039806 163.6953125 72.05908203 C185.55102196 93.15553607 204.22451664 124.92440659 211.95703125 154.20361328 C213.81715215 161.7488926 213.81715215 161.7488926 219.20703125 167.01611328 C219.97273438 167.38478516 220.7384375 167.75345703 221.52734375 168.13330078 C235.14996803 175.1855275 244.32179339 193.24319852 249.25 207.00048828 C251.68251777 214.76346917 253.11812988 221.73119526 253.1953125 229.88330078 C253.20338425 230.70629669 253.21145599 231.5292926 253.21977234 232.37722778 C253.23357535 234.12044191 253.24431435 235.86368264 253.25219727 237.60693359 C253.26363709 239.36189895 253.28395966 241.11683175 253.3137207 242.87158203 C253.6896858 265.08502793 248.3853627 283.97586409 233.95703125 301.39111328 C233.34601563 302.15423828 232.735 302.91736328 232.10546875 303.70361328 C229.26449368 307.12835035 226.83887174 309.47638368 222.94140625 311.62548828 C217.71179137 315.4919277 217.27785789 320.83596617 216.36523438 326.86767578 C216.16464667 328.33354662 215.96608321 329.79969586 215.76953125 331.26611328 C215.35597248 334.12047968 214.92238414 336.97130309 214.4765625 339.82080078 C214.36758133 340.52634094 214.25860016 341.2318811 214.14631653 341.95880127 C206.96765012 385.59260028 177.55384441 428.9740506 142.40625 455.12939453 C134.4559774 460.55205618 124.5643888 466.53496315 114.73925781 466.50463867 C113.91870911 466.50456314 113.0981604 466.50448761 112.25274658 466.50440979 C111.37656677 466.4992485 110.50038696 466.49408722 109.59765625 466.48876953 C108.24108917 466.48664711 108.24108917 466.48664711 106.8571167 466.48448181 C103.97372098 466.47889239 101.09040343 466.46634181 98.20703125 466.45361328 C96.25000112 466.44859691 94.29296978 466.44403425 92.3359375 466.43994141 C87.54293872 466.42892641 82.74999823 466.41166903 77.95703125 466.39111328 C77.66054688 467.32310547 77.3640625 468.25509766 77.05859375 469.21533203 C72.79759998 481.49968642 62.07491662 489.63014571 50.95703125 495.39111328 C47.34194837 496.92963564 43.70978546 498.2339051 39.95703125 499.39111328 C38.96703125 499.72111328 37.97703125 500.05111328 36.95703125 500.39111328 C32.27384849 500.65644941 27.5844025 500.62269454 22.89453125 500.64111328 C20.96577148 500.67205078 20.96577148 500.67205078 18.99804688 500.70361328 C1.25952794 500.77605236 -12.04273813 494.04292482 -24.79296875 481.95361328 C-33.62460827 472.77443239 -37.0098031 462.01064462 -37.04296875 449.39111328 C-36.25753944 438.17313374 -30.52437409 427.8034916 -22.84765625 419.77783203 C-8.47110376 407.54374628 10.25919576 402.01771508 28.95703125 403.39111328 C45.93067053 405.76979329 61.08065656 412.48260152 72.08984375 426.01220703 C75.15678994 430.19045558 77.04234307 433.26970982 77.95703125 438.39111328 C82.88350391 438.39649278 87.80764644 438.3622652 92.73364258 438.29345703 C94.40446066 438.27544109 96.07542593 438.26770203 97.74633789 438.27099609 C108.19708955 438.28350822 116.26691937 437.88453454 124.95703125 431.39111328 C125.63805908 430.88515625 126.31908691 430.37919922 127.02075195 429.85791016 C128.90009572 428.36850071 130.68253109 426.81601138 132.45703125 425.20361328 C133.09084717 424.63827881 133.72466309 424.07294434 134.37768555 423.49047852 C136.25150685 421.80533979 138.1068369 420.10212244 139.95703125 418.39111328 C140.47861816 417.91480469 141.00020508 417.43849609 141.53759766 416.94775391 C166.68703881 393.7945653 179.91431909 360.11901098 186.95703125 327.39111328 C186.29703125 327.72111328 185.63703125 328.05111328 184.95703125 328.39111328 C177.2872847 329.05379676 170.2411269 329.2723812 163.95703125 324.39111328 C159.02709035 319.8361567 156.29901 315.31247359 155.70255566 308.47312355 C155.70050279 307.44926237 155.69844992 306.42540119 155.69633484 305.37051392 C155.68925003 304.18743149 155.68216522 303.00434906 155.67486572 301.78541565 C155.67734314 300.50110153 155.67982056 299.21678741 155.68237305 297.89355469 C155.67802204 296.51650212 155.67283759 295.13945197 155.66688538 293.7624054 C155.65352512 290.03297622 155.65291344 286.30364858 155.65544868 282.57420015 C155.65652053 279.45555796 155.65162949 276.33693613 155.64684325 273.21829832 C155.6357581 265.85759346 155.63530491 258.49693963 155.64135742 251.13623047 C155.64739552 243.55516711 155.63508817 235.97428942 155.61378735 228.39325774 C155.59614483 221.87330847 155.59017421 215.35341815 155.5934251 208.83344591 C155.59523406 204.94430832 155.59264065 201.05530316 155.57871056 197.16618729 C155.56609375 193.50696666 155.5681124 189.84803441 155.58112144 186.18881798 C155.58459756 184.21516028 155.57333735 182.24149362 155.56155396 180.26786804 C155.60586836 172.75786564 155.73617559 166.05204625 160.9296875 160.14892578 C161.61933594 159.61009766 162.30898438 159.07126953 163.01953125 158.51611328 C163.71175781 157.96181641 164.40398437 157.40751953 165.1171875 156.83642578 C165.72433594 156.35947266 166.33148438 155.88251953 166.95703125 155.39111328 C167.61703125 154.73111328 168.27703125 154.07111328 168.95703125 153.39111328 C159.75564614 129.90166184 145.00646573 108.96556264 126.95703125 91.39111328 C126.28220703 90.66601562 126.28220703 90.66601562 125.59375 89.92626953 C94.60189492 57.2425514 49.64278987 41.23543573 5.37402344 40.03564453 C-41.96192914 39.65313178 -81.64156167 57.07305184 -117.04296875 87.39111328 C-117.74301025 87.98311523 -118.44305176 88.57511719 -119.16430664 89.18505859 C-123.01409027 92.48141622 -126.44841324 95.77636192 -129.60546875 99.76611328 C-130.36085938 100.71744141 -131.11625 101.66876953 -131.89453125 102.64892578 C-132.95800781 104.00630859 -132.95800781 104.00630859 -134.04296875 105.39111328 C-134.92082031 106.47005859 -134.92082031 106.47005859 -135.81640625 107.57080078 C-147.16535086 121.69037976 -157.05159922 137.27291462 -163.04296875 154.39111328 C-162.15609375 154.92736328 -161.26921875 155.46361328 -160.35546875 156.01611328 C-154.8691973 159.6995674 -151.78869015 164.04956292 -150.04296875 170.39111328 C-149.78849316 173.30910301 -149.78849316 173.30910301 -149.78227234 176.41171265 C-149.77518753 177.59479507 -149.76810272 178.7778775 -149.76080322 179.99681091 C-149.76328064 181.28112503 -149.76575806 182.56543915 -149.76831055 183.88867188 C-149.76395954 185.26572444 -149.75877509 186.64277459 -149.75282288 188.01982117 C-149.73946262 191.74925034 -149.73885094 195.47857798 -149.74138618 199.20802641 C-149.74245803 202.3266686 -149.73756699 205.44529043 -149.73278075 208.56392825 C-149.7216956 215.92463311 -149.72124241 223.28528693 -149.72729492 230.64599609 C-149.73333302 238.22705945 -149.72102567 245.80793714 -149.69972485 253.38896883 C-149.68208233 259.9089181 -149.67611171 266.42880841 -149.6793626 272.94878066 C-149.68117156 276.83791824 -149.67857815 280.72692341 -149.66464806 284.61603928 C-149.65203125 288.27525991 -149.6540499 291.93419215 -149.66705894 295.59340858 C-149.67053506 297.56706628 -149.65927485 299.54073294 -149.64749146 301.51435852 C-149.69190581 309.04129988 -149.8907986 315.6058713 -154.91015625 321.63330078 C-155.57273437 322.17212891 -156.2353125 322.71095703 -156.91796875 323.26611328 C-157.57539063 323.82041016 -158.2328125 324.37470703 -158.91015625 324.94580078 C-166.13249712 329.84006108 -174.2497303 329.0683037 -182.58203125 327.89111328 C-204.61953919 323.59111173 -221.88231664 311.63512489 -234.5625 293.28564453 C-244.51438846 278.14962119 -247.7433667 261.1849517 -247.56445312 243.42089844 C-247.54298535 240.89306787 -247.56438514 238.36807779 -247.58984375 235.84033203 C-247.60800359 225.38771771 -246.38405542 216.32403157 -243.04296875 206.39111328 C-242.78628418 205.62782715 -242.52959961 204.86454102 -242.26513672 204.078125 C-236.69832917 188.81042492 -226.01566684 175.16924974 -213.04296875 165.39111328 C-212.35847656 165.17583984 -211.67398438 164.96056641 -210.96875 164.73876953 C-207.69585951 162.44841006 -207.4534573 158.53091175 -206.54296875 154.82861328 C-201.19294179 135.30074639 -191.19639098 117.19311646 -180.04296875 100.39111328 C-179.56359863 99.66456543 -179.08422852 98.93801758 -178.59033203 98.18945312 C-170.5047619 86.04643567 -161.34190006 75.69004459 -151.04296875 65.39111328 C-149.93777882 64.25278295 -148.83369444 63.11337864 -147.73046875 61.97314453 C-133.38659615 47.23754389 -117.7683286 36.74556366 -100.04296875 26.39111328 C-99.33881836 25.97555176 -98.63466797 25.55999023 -97.90917969 25.13183594 C-83.10810967 16.47409696 -66.8324384 10.40166407 -50.29296875 6.01611328 C-49.44476563 5.78972168 -48.5965625 5.56333008 -47.72265625 5.33007812 C-31.87448005 1.37100858 -16.30801821 -0.10530012 0 0 Z " fill="#505050" transform="translate(339.04296875,-0.39111328125)"/>
</svg>
